<mxfile host="65bd71144e">
    <diagram id="3Mg6AQgYLVeWx0EcA6HJ" name="Page-1">
        <mxGraphModel dx="1002" dy="568" grid="1" gridSize="10" guides="1" tooltips="1" connect="1" arrows="1" fold="1" page="1" pageScale="1" pageWidth="850" pageHeight="1100" background="none" math="0" shadow="0">
            <root>
                <mxCell id="0"/>
                <mxCell id="1" parent="0"/>
                <mxCell id="2" value="users" style="swimlane;whiteSpace=wrap;html=1;" vertex="1" parent="1">
                    <mxGeometry x="200" y="40" width="160" height="200" as="geometry">
                        <mxRectangle x="40" y="40" width="70" height="30" as="alternateBounds"/>
                    </mxGeometry>
                </mxCell>
                <mxCell id="3" value="" style="shape=cross;whiteSpace=wrap;html=1;size=0;" vertex="1" parent="2">
                    <mxGeometry y="30" width="20" height="20" as="geometry"/>
                </mxCell>
                <mxCell id="4" value="userID: integer" style="text;html=1;align=center;verticalAlign=middle;resizable=0;points=[];autosize=1;strokeColor=none;fillColor=none;" vertex="1" parent="2">
                    <mxGeometry x="30" y="25" width="100" height="30" as="geometry"/>
                </mxCell>
                <mxCell id="6" value="" style="shape=cross;whiteSpace=wrap;html=1;size=0;" vertex="1" parent="2">
                    <mxGeometry y="70" width="20" height="20" as="geometry"/>
                </mxCell>
                <mxCell id="7" value="" style="shape=cross;whiteSpace=wrap;html=1;size=0;" vertex="1" parent="2">
                    <mxGeometry y="110" width="20" height="20" as="geometry"/>
                </mxCell>
                <mxCell id="8" value="" style="shape=cross;whiteSpace=wrap;html=1;size=0;" vertex="1" parent="2">
                    <mxGeometry y="150" width="20" height="20" as="geometry"/>
                </mxCell>
                <mxCell id="9" value="mail: varchar" style="text;html=1;align=center;verticalAlign=middle;resizable=0;points=[];autosize=1;strokeColor=none;fillColor=none;" vertex="1" parent="2">
                    <mxGeometry x="30" y="65" width="90" height="30" as="geometry"/>
                </mxCell>
                <mxCell id="10" value="password: varchar" style="text;html=1;align=center;verticalAlign=middle;resizable=0;points=[];autosize=1;strokeColor=none;fillColor=none;" vertex="1" parent="2">
                    <mxGeometry x="30" y="100" width="120" height="30" as="geometry"/>
                </mxCell>
                <mxCell id="11" value="role: varchar" style="text;html=1;align=center;verticalAlign=middle;resizable=0;points=[];autosize=1;strokeColor=none;fillColor=none;" vertex="1" parent="2">
                    <mxGeometry x="30" y="140" width="90" height="30" as="geometry"/>
                </mxCell>
                <mxCell id="12" value="profiles" style="swimlane;whiteSpace=wrap;html=1;" vertex="1" parent="1">
                    <mxGeometry x="640" y="40" width="160" height="500" as="geometry">
                        <mxRectangle x="40" y="40" width="70" height="30" as="alternateBounds"/>
                    </mxGeometry>
                </mxCell>
                <mxCell id="13" value="" style="shape=cross;whiteSpace=wrap;html=1;size=0;" vertex="1" parent="12">
                    <mxGeometry x="10" y="35" width="20" height="20" as="geometry"/>
                </mxCell>
                <mxCell id="14" value="userID: integer" style="text;html=1;align=center;verticalAlign=middle;resizable=0;points=[];autosize=1;strokeColor=none;fillColor=none;" vertex="1" parent="12">
                    <mxGeometry x="30" y="30" width="100" height="30" as="geometry"/>
                </mxCell>
                <mxCell id="15" value="" style="shape=cross;whiteSpace=wrap;html=1;size=0;" vertex="1" parent="12">
                    <mxGeometry x="10" y="75" width="20" height="20" as="geometry"/>
                </mxCell>
                <mxCell id="16" value="" style="shape=cross;whiteSpace=wrap;html=1;size=0;" vertex="1" parent="12">
                    <mxGeometry x="10" y="115" width="20" height="20" as="geometry"/>
                </mxCell>
                <mxCell id="17" value="" style="shape=cross;whiteSpace=wrap;html=1;size=0;" vertex="1" parent="12">
                    <mxGeometry x="10" y="155" width="20" height="20" as="geometry"/>
                </mxCell>
                <mxCell id="18" value="firstname: varchar" style="text;html=1;align=center;verticalAlign=middle;resizable=0;points=[];autosize=1;strokeColor=none;fillColor=none;" vertex="1" parent="12">
                    <mxGeometry x="30" y="70" width="120" height="30" as="geometry"/>
                </mxCell>
                <mxCell id="19" value="lastname: varchar" style="text;html=1;align=center;verticalAlign=middle;resizable=0;points=[];autosize=1;strokeColor=none;fillColor=none;" vertex="1" parent="12">
                    <mxGeometry x="30" y="110" width="120" height="30" as="geometry"/>
                </mxCell>
                <mxCell id="20" value="birthday: date" style="text;html=1;align=center;verticalAlign=middle;resizable=0;points=[];autosize=1;strokeColor=none;fillColor=none;" vertex="1" parent="12">
                    <mxGeometry x="30" y="150" width="100" height="30" as="geometry"/>
                </mxCell>
                <mxCell id="22" value="" style="shape=cross;whiteSpace=wrap;html=1;size=0;" vertex="1" parent="12">
                    <mxGeometry x="10" y="195" width="20" height="20" as="geometry"/>
                </mxCell>
                <mxCell id="23" value="" style="shape=cross;whiteSpace=wrap;html=1;size=0;" vertex="1" parent="12">
                    <mxGeometry x="10" y="235" width="20" height="20" as="geometry"/>
                </mxCell>
                <mxCell id="24" value="" style="shape=cross;whiteSpace=wrap;html=1;size=0;" vertex="1" parent="12">
                    <mxGeometry x="10" y="275" width="20" height="20" as="geometry"/>
                </mxCell>
                <mxCell id="25" value="" style="shape=cross;whiteSpace=wrap;html=1;size=0;" vertex="1" parent="12">
                    <mxGeometry x="10" y="315" width="20" height="20" as="geometry"/>
                </mxCell>
                <mxCell id="26" value="parents: varchar" style="text;html=1;align=center;verticalAlign=middle;resizable=0;points=[];autosize=1;strokeColor=none;fillColor=none;" vertex="1" parent="12">
                    <mxGeometry x="30" y="310" width="110" height="30" as="geometry"/>
                </mxCell>
                <mxCell id="27" value="phone: numeric" style="text;html=1;align=center;verticalAlign=middle;resizable=0;points=[];autosize=1;strokeColor=none;fillColor=none;" vertex="1" parent="12">
                    <mxGeometry x="30" y="190" width="110" height="30" as="geometry"/>
                </mxCell>
                <mxCell id="28" value="address: varchar" style="text;html=1;align=center;verticalAlign=middle;resizable=0;points=[];autosize=1;strokeColor=none;fillColor=none;" vertex="1" parent="12">
                    <mxGeometry x="30" y="230" width="110" height="30" as="geometry"/>
                </mxCell>
                <mxCell id="29" value="job: varchar" style="text;html=1;align=center;verticalAlign=middle;resizable=0;points=[];autosize=1;strokeColor=none;fillColor=none;" vertex="1" parent="12">
                    <mxGeometry x="30" y="270" width="90" height="30" as="geometry"/>
                </mxCell>
                <mxCell id="35" value="myself: varchar" style="text;html=1;align=center;verticalAlign=middle;resizable=0;points=[];autosize=1;strokeColor=none;fillColor=none;" vertex="1" parent="12">
                    <mxGeometry x="35" y="350" width="100" height="30" as="geometry"/>
                </mxCell>
                <mxCell id="31" value="" style="shape=cross;whiteSpace=wrap;html=1;size=0;" vertex="1" parent="12">
                    <mxGeometry x="10" y="355" width="20" height="20" as="geometry"/>
                </mxCell>
                <mxCell id="38" value="travels: varchar" style="text;html=1;align=center;verticalAlign=middle;resizable=0;points=[];autosize=1;strokeColor=none;fillColor=none;" vertex="1" parent="12">
                    <mxGeometry x="30" y="390" width="110" height="30" as="geometry"/>
                </mxCell>
                <mxCell id="39" value="" style="shape=cross;whiteSpace=wrap;html=1;size=0;" vertex="1" parent="12">
                    <mxGeometry x="10" y="395" width="20" height="20" as="geometry"/>
                </mxCell>
                <mxCell id="40" value="anecdotes: varchar" style="text;html=1;align=center;verticalAlign=middle;resizable=0;points=[];autosize=1;strokeColor=none;fillColor=none;" vertex="1" parent="12">
                    <mxGeometry x="30" y="430" width="130" height="30" as="geometry"/>
                </mxCell>
                <mxCell id="41" value="" style="shape=cross;whiteSpace=wrap;html=1;size=0;" vertex="1" parent="12">
                    <mxGeometry x="10" y="435" width="20" height="20" as="geometry"/>
                </mxCell>
                <mxCell id="43" value="" style="endArrow=classic;startArrow=classic;html=1;exitX=0.025;exitY=0.945;exitDx=0;exitDy=0;exitPerimeter=0;" edge="1" parent="1" source="44">
                    <mxGeometry width="50" height="50" relative="1" as="geometry">
                        <mxPoint x="200" y="80" as="sourcePoint"/>
                        <mxPoint x="640" y="80" as="targetPoint"/>
                    </mxGeometry>
                </mxCell>
                <mxCell id="44" value="1" style="text;html=1;align=center;verticalAlign=middle;resizable=0;points=[];autosize=1;strokeColor=none;fillColor=none;" vertex="1" parent="1">
                    <mxGeometry x="360" y="50" width="30" height="30" as="geometry"/>
                </mxCell>
                <mxCell id="45" value="1" style="text;html=1;align=center;verticalAlign=middle;resizable=0;points=[];autosize=1;strokeColor=none;fillColor=none;" vertex="1" parent="1">
                    <mxGeometry x="610" y="50" width="30" height="30" as="geometry"/>
                </mxCell>
                <mxCell id="46" value="photography" style="swimlane;whiteSpace=wrap;html=1;" vertex="1" parent="1">
                    <mxGeometry x="200" y="280" width="160" height="160" as="geometry">
                        <mxRectangle x="40" y="40" width="70" height="30" as="alternateBounds"/>
                    </mxGeometry>
                </mxCell>
                <mxCell id="47" value="" style="shape=cross;whiteSpace=wrap;html=1;size=0;" vertex="1" parent="46">
                    <mxGeometry x="20" y="35" width="20" height="20" as="geometry"/>
                </mxCell>
                <mxCell id="48" value="id: integer" style="text;html=1;align=center;verticalAlign=middle;resizable=0;points=[];autosize=1;strokeColor=none;fillColor=none;" vertex="1" parent="46">
                    <mxGeometry x="40" y="30" width="80" height="30" as="geometry"/>
                </mxCell>
                <mxCell id="49" value="" style="shape=cross;whiteSpace=wrap;html=1;size=0;" vertex="1" parent="46">
                    <mxGeometry x="20" y="75" width="20" height="20" as="geometry"/>
                </mxCell>
                <mxCell id="50" value="" style="shape=cross;whiteSpace=wrap;html=1;size=0;" vertex="1" parent="46">
                    <mxGeometry x="20" y="115" width="20" height="20" as="geometry"/>
                </mxCell>
                <mxCell id="52" value="photo: oid" style="text;html=1;align=center;verticalAlign=middle;resizable=0;points=[];autosize=1;strokeColor=none;fillColor=none;" vertex="1" parent="46">
                    <mxGeometry x="40" y="70" width="80" height="30" as="geometry"/>
                </mxCell>
                <mxCell id="53" value="information: varchar" style="text;html=1;align=center;verticalAlign=middle;resizable=0;points=[];autosize=1;strokeColor=none;fillColor=none;" vertex="1" parent="46">
                    <mxGeometry x="40" y="110" width="130" height="30" as="geometry"/>
                </mxCell>
                <mxCell id="55" value="comments" style="swimlane;whiteSpace=wrap;html=1;" vertex="1" parent="1">
                    <mxGeometry x="200" y="480" width="165" height="120" as="geometry">
                        <mxRectangle x="40" y="40" width="70" height="30" as="alternateBounds"/>
                    </mxGeometry>
                </mxCell>
                <mxCell id="56" value="" style="shape=cross;whiteSpace=wrap;html=1;size=0;" vertex="1" parent="55">
                    <mxGeometry x="20" y="35" width="20" height="20" as="geometry"/>
                </mxCell>
                <mxCell id="57" value="id: integer" style="text;html=1;align=center;verticalAlign=middle;resizable=0;points=[];autosize=1;strokeColor=none;fillColor=none;" vertex="1" parent="55">
                    <mxGeometry x="40" y="30" width="80" height="30" as="geometry"/>
                </mxCell>
                <mxCell id="58" value="" style="shape=cross;whiteSpace=wrap;html=1;size=0;" vertex="1" parent="55">
                    <mxGeometry x="20" y="75" width="20" height="20" as="geometry"/>
                </mxCell>
                <mxCell id="60" value="comment: varchar" style="text;html=1;align=center;verticalAlign=middle;resizable=0;points=[];autosize=1;strokeColor=none;fillColor=none;" vertex="1" parent="55">
                    <mxGeometry x="40" y="70" width="120" height="30" as="geometry"/>
                </mxCell>
                <mxCell id="63" value="" style="shape=partialRectangle;whiteSpace=wrap;html=1;bottom=1;right=1;left=1;top=0;fillColor=none;routingCenterX=-0.5;direction=south;" vertex="1" parent="1">
                    <mxGeometry x="160" y="90" width="40" height="240" as="geometry"/>
                </mxCell>
                <mxCell id="64" value="1" style="text;html=1;align=center;verticalAlign=middle;resizable=0;points=[];autosize=1;strokeColor=none;fillColor=none;" vertex="1" parent="1">
                    <mxGeometry x="170" y="90" width="30" height="30" as="geometry"/>
                </mxCell>
                <mxCell id="65" value="n" style="text;html=1;align=center;verticalAlign=middle;resizable=0;points=[];autosize=1;strokeColor=none;fillColor=none;" vertex="1" parent="1">
                    <mxGeometry x="170" y="300" width="30" height="30" as="geometry"/>
                </mxCell>
                <mxCell id="66" value="" style="shape=partialRectangle;whiteSpace=wrap;html=1;bottom=1;right=1;left=1;top=0;fillColor=none;routingCenterX=-0.5;direction=south;" vertex="1" parent="1">
                    <mxGeometry x="130" y="70" width="70" height="460" as="geometry"/>
                </mxCell>
                <mxCell id="68" value="n" style="text;html=1;align=center;verticalAlign=middle;resizable=0;points=[];autosize=1;strokeColor=none;fillColor=none;" vertex="1" parent="1">
                    <mxGeometry x="170" y="500" width="30" height="30" as="geometry"/>
                </mxCell>
                <mxCell id="69" value="1" style="text;html=1;align=center;verticalAlign=middle;resizable=0;points=[];autosize=1;strokeColor=none;fillColor=none;" vertex="1" parent="1">
                    <mxGeometry x="170" y="40" width="30" height="30" as="geometry"/>
                </mxCell>
                <mxCell id="70" value="" style="shape=partialRectangle;whiteSpace=wrap;html=1;bottom=1;right=1;left=1;top=0;fillColor=none;routingCenterX=-0.5;direction=north;" vertex="1" parent="1">
                    <mxGeometry x="365" y="330" width="60" height="200" as="geometry"/>
                </mxCell>
                <mxCell id="71" value="1" style="text;html=1;align=center;verticalAlign=middle;resizable=0;points=[];autosize=1;strokeColor=none;fillColor=none;" vertex="1" parent="1">
                    <mxGeometry x="360" y="300" width="30" height="30" as="geometry"/>
                </mxCell>
                <mxCell id="72" value="n" style="text;html=1;align=center;verticalAlign=middle;resizable=0;points=[];autosize=1;strokeColor=none;fillColor=none;" vertex="1" parent="1">
                    <mxGeometry x="365" y="500" width="30" height="30" as="geometry"/>
                </mxCell>
            </root>
        </mxGraphModel>
    </diagram>
</mxfile>